<svg id="evF0sxQeE1Y1" xmlns="http://www.w3.org/2000/svg" xmlns:xlink="http://www.w3.org/1999/xlink" viewBox="0 0 300 300" shape-rendering="geometricPrecision" text-rendering="geometricPrecision"><defs><linearGradient id="evF0sxQeE1Y2-fill" x1="0.101692" y1="0.225328" x2="1.075978" y2="0.5" spreadMethod="pad" gradientUnits="objectBoundingBox" gradientTransform="translate(0 0)"><stop id="evF0sxQeE1Y2-fill-0" offset="0%" stop-color="#ec75f6"/><stop id="evF0sxQeE1Y2-fill-1" offset="56.1007%" stop-color="#e5a9fb"/></linearGradient><linearGradient id="evF0sxQeE1Y3-fill" x1="0.049659" y1="0.407184" x2="0.994513" y2="0.653081" spreadMethod="pad" gradientUnits="objectBoundingBox" gradientTransform="translate(0 0)"><stop id="evF0sxQeE1Y3-fill-0" offset="0%" stop-color="#be97ff"/><stop id="evF0sxQeE1Y3-fill-1" offset="100%" stop-color="#7662e9"/></linearGradient><linearGradient id="evF0sxQeE1Y4-fill" x1="-0.53297" y1="0.128104" x2="0.906684" y2="0.745789" spreadMethod="pad" gradientUnits="objectBoundingBox" gradientTransform="translate(0 0)"><stop id="evF0sxQeE1Y4-fill-0" offset="0%" stop-color="#be97ff"/><stop id="evF0sxQeE1Y4-fill-1" offset="100%" stop-color="#445ae3"/></linearGradient></defs><path d="M149.85107,83.223289c38.208715,76.175667,54.085793-20.318684,86.059998-35.374086c28.897977,3.487025,8.199988,66.643505,6.31101,104.214019L150,261.720637c-40.046047-38.845888-95.549792-97.298703-102.799671-109.657415C26.963979,130.38347,11.617084,73.757936,58.800136,47.698881c40.61187-16.702776,72.316336,5.527071,91.050934,35.524408Z" transform="translate(-.511107 19.000007)" fill="url(#evF0sxQeE1Y2-fill)" stroke-width="0.6"/><path d="M197.86178,-12.475111c-.373708,10.799095.789441,40.640157-41.324311,95.698405l-35.575532,55.81741c-19.685264,21.972887-24.107888,70.515404-7.198755,86.226948l35.226865,36.452988l92.371008-109.65741c3.796573-29.06692,17.862661-75.082431,19.924589-91.889235-13.307142-20.264928-51.800185-64.336365-63.423864-72.649106Z" transform="translate(.349916 19.000002)" fill="url(#evF0sxQeE1Y3-fill)" stroke-width="0.6"/><path d="M150.000001,182.696955l54.035052-70.474147c29.507981-45.674239,6.070415-97.04885-8.662635-125.42291c13.185718,8.169643,38.119054,25.499606,57.7572,55.22411c6.619384,12.310989,25.044526,48.44916-5.593935,102.823256-20.722396,37.849691-55.061887,65.767048-100.332403,116.873373-13.632228-12.652629-19.23262-46.597297,2.796721-79.023682Z" transform="matrix(1.014586 0 0 1-.010424 19.000005)" fill="url(#evF0sxQeE1Y4-fill)" stroke-width="0.6"/></svg>
