<svg id="eewmfPoZEN71" xmlns="http://www.w3.org/2000/svg" xmlns:xlink="http://www.w3.org/1999/xlink" viewBox="0 0 300 300" shape-rendering="geometricPrecision" text-rendering="geometricPrecision"><defs><linearGradient id="eewmfPoZEN72-fill" x1="0.101692" y1="0.225328" x2="1.075978" y2="0.5" spreadMethod="pad" gradientUnits="objectBoundingBox" gradientTransform="translate(0 0)"><stop id="eewmfPoZEN72-fill-0" offset="0%" stop-color="#445ae3"/><stop id="eewmfPoZEN72-fill-1" offset="100%" stop-color="#e5a9fb"/></linearGradient><linearGradient id="eewmfPoZEN73-fill" x1="0.183894" y1="0.375455" x2="1" y2="0.806436" spreadMethod="pad" gradientUnits="objectBoundingBox" gradientTransform="translate(0 0)"><stop id="eewmfPoZEN73-fill-0" offset="0%" stop-color="#be97ff"/><stop id="eewmfPoZEN73-fill-1" offset="100%" stop-color="#7662e9"/></linearGradient><linearGradient id="eewmfPoZEN74-fill" x1="-0.427209" y1="0.232063" x2="0.796216" y2="0.888696" spreadMethod="pad" gradientUnits="objectBoundingBox" gradientTransform="translate(0 0)"><stop id="eewmfPoZEN74-fill-0" offset="0%" stop-color="#be97ff"/><stop id="eewmfPoZEN74-fill-1" offset="100%" stop-color="#445ae3"/></linearGradient></defs><path d="M149.85107,83.223289c38.208715,76.175667,54.085793-20.318684,86.059998-35.374086c28.897977,3.487025,8.199988,66.643505,6.31101,104.214019L150,261.720637c-40.046047-38.845888-95.549792-97.298703-102.799671-109.657415C26.963979,130.38347,11.617084,73.757936,58.800136,47.698881c40.61187-16.702776,72.316336,5.527071,91.050934,35.524408Z" transform="translate(-.511107 19.000007)" fill="url(#eewmfPoZEN72-fill)" stroke-width="0.6"/><path d="M197.86178,-12.475111c-.373708,10.799095,4.414381,45.715073-37.699371,100.773321l-39.200472,50.742494c-19.685264,21.972887-24.107888,70.515404-7.198755,86.226948l35.226865,36.452988l92.371008-109.65741c3.796573-29.06692-2.061928-72.332793,0-89.139597-13.307142-20.264928-31.875596-67.086003-43.499275-75.398744Z" transform="translate(.349916 19.000002)" fill="url(#eewmfPoZEN73-fill)" stroke-width="0.6"/><path d="M150.000001,182.696955l54.035052-70.474147c29.507981-45.674239,6.070415-97.04885-8.662635-125.42291C207.398947,-6.491997,230.839,6.249544,247.70838,31.024161c12.350104,17.681304,26.3564,59.108166,0,112.373127-20.722396,42.940488-55.234584,69.339257-100.5051,118.323349-13.632228-12.652629-19.23262-46.597297,2.796721-79.023682Z" transform="matrix(.988461 0 0 1 4.637007 19.000005)" fill="url(#eewmfPoZEN74-fill)" stroke-width="0.6"/></svg>
